<svg width="100%" height="100%" viewBox="0 0 1920 1080" xmlns="http://www.w3.org/2000/svg">
  <g stroke="white" stroke-width="0.2" fill="none">
    <!-- Horizontal warp lines -->
    <path d="M0,100 Q480,50 960,100 T1920,100" />
    <path d="M0,300 Q480,250 960,300 T1920,300" />
    <path d="M0,500 Q480,450 960,500 T1920,500" />
    <path d="M0,700 Q480,650 960,700 T1920,700" />
    <path d="M0,900 Q480,850 960,900 T1920,900" />

    <!-- Vertical warp lines -->
    <path d="M100,0 Q50,270 100,540 T100,1080" />
    <path d="M300,0 Q250,270 300,540 T300,1080" />
    <path d="M500,0 Q450,270 500,540 T500,1080" />
    <path d="M700,0 Q650,270 700,540 T700,1080" />
    <path d="M900,0 Q850,270 900,540 T900,1080" />
    <path d="M1100,0 Q1050,270 1100,540 T1100,1080" />
    <path d="M1300,0 Q1250,270 1300,540 T1300,1080" />
    <path d="M1500,0 Q1450,270 1500,540 T1500,1080" />
    <path d="M1700,0 Q1650,270 1700,540 T1700,1080" />
  </g>
</svg>
